# xmcd CD database file
#
# Track frame offsets:
#	150
#	22582
#	42953
#	59503
#	77370
#	96645
#	111857
#	137719
#	159735
#	181190
#	220201
#	238317
#	250003
#
# Disc length: 3662 seconds
#
# Revision: 0
# Processed by: cddbd v1.5.2PL0 Copyright (c) Steve Scherf et al.
# Submitted via: CDex 1.51
#
DISCID=ac0e4c0d
DTITLE=Mumbo-Jumbo - Sonic Gumbo
DYEAR=2016
DGENRE=Jazz
TTITLE0=Second Hand Guitar Dealer
TTITLE1=Sail That Ship
TTITLE2=Ally Slopers Half Holiday
TTITLE3=Those Frail Few
TTITLE4=Rejoice
TTITLE5=Hosedown
TTITLE6=No Devil at the Crossroads
TTITLE7=Later Somehow
TTITLE8=Taking You Back
TTITLE9=Hold On
TTITLE10=Back to the Wheel
TTITLE11=Too Many Days
TTITLE12=|The Final Encore
EXTD=YEAR: 2016
EXTT0=
EXTT1=
EXTT2=
EXTT3=
EXTT4=
EXTT5=
EXTT6=
EXTT7=
EXTT8=
EXTT9=
EXTT10=
EXTT11=
EXTT12=
PLAYORDER=
